<?xml version="1.0" encoding="UTF-8"?>
<!DOCTYPE svg PUBLIC "-//W3C//DTD SVG 1.1//EN" "http://www.w3.org/Graphics/SVG/1.1/DTD/svg11.dtd">
<!-- Creator: CorelDRAW 2021.5 -->
<svg xmlns="http://www.w3.org/2000/svg" xml:space="preserve" width="1205px" height="467px" version="1.1" style="shape-rendering:geometricPrecision; text-rendering:geometricPrecision; image-rendering:optimizeQuality; fill-rule:evenodd; clip-rule:evenodd"
viewBox="0 0 497.81 192.99"
 xmlns:xlink="http://www.w3.org/1999/xlink"
 xmlns:xodm="http://www.corel.com/coreldraw/odm/2003">
 <defs>
  <style type="text/css">
   <![CDATA[
    .fil1 {fill:#E52710}
    .fil0 {fill:#E52710;fill-rule:nonzero}
   ]]>
  </style>
 </defs>
 <g id="Слой_x0020_1">
  <metadata id="CorelCorpID_0Corel-Layer"/>
  <path class="fil0" d="M54.35 3.97l0.04 184.87c6.41,-2.49 25.56,-10.42 35.5,-14.54 3.02,-1.25 5.48,-2.27 7,-2.9l-0.06 -147.37c-5.21,-1.87 -14.79,-6.64 -24.07,-11.28 -6.71,-3.34 -14.77,-7.36 -18.41,-8.78zm-1.66 189.02l-0.05 0 -1.69 -0.02 -0.05 -192.89 1.65 -0.08c1.95,-0.12 7.83,2.73 21.75,9.67 9.47,4.73 20.21,10.09 24.75,11.48l1.22 0.37 0.06 152.19 -1.07 0.44c-1.21,0.49 -4.17,1.72 -8.05,3.33 -36.5,15.12 -37.85,15.51 -38.52,15.51z"/>
  <path class="fil1" d="M46.25 44.03l-45.97 21.52c-0.65,35.49 0.02,71.47 0.06,107.01 13.38,3.74 32.89,13.44 45.89,18.79l0.02 -147.32z"/>
  <path class="fil1" d="M467.54 88.15l3.4 -7.27c5.61,-0.1 11.3,0.01 16.91,0.01 0.59,2.12 2.13,5.2 2.97,7.26l-23.28 0z"/>
  <path class="fil0" d="M198.56 94.5c6.88,0 12.28,2.1 16.21,6.3 3.92,4.2 5.88,9.92 5.88,17.17 0,7.29 -1.96,13.05 -5.88,17.26 -3.93,4.21 -9.33,6.32 -16.21,6.32 -6.93,0 -12.35,-2.1 -16.27,-6.27 -3.93,-4.17 -5.89,-9.9 -5.89,-17.2 0,-7.27 1.97,-13.02 5.9,-17.25 3.94,-4.22 9.36,-6.33 16.26,-6.33zm0 8.39c-3.8,0 -6.79,1.34 -8.97,4.03 -2.19,2.69 -3.28,6.4 -3.28,11.12 0,4.74 1.09,8.44 3.28,11.11 2.18,2.67 5.17,4.01 8.97,4.01 3.75,0 6.73,-1.34 8.93,-4.02 2.2,-2.69 3.29,-6.38 3.29,-11.1 0,-4.69 -1.09,-8.39 -3.29,-11.1 -2.2,-2.71 -5.18,-4.05 -8.93,-4.05zm66.92 -7.12l8.84 0 0 44.51 -9.09 0 0 -25.74 0.04 -4.14c-0.65,1.27 -1.44,2.67 -2.39,4.21l-8.6 13.64 -5.92 0 -8.69 -13.64c-0.31,-0.47 -1.04,-1.65 -2.16,-3.57l0.04 3.5 0 25.74 -9.09 0 0 -44.51 8.9 0 14.13 22.12 13.99 -22.12zm39.37 45.78c-7.27,0 -12.89,-2.01 -16.83,-6 -3.95,-4.01 -5.92,-9.63 -5.92,-16.87 0,-7.66 2.1,-13.59 6.29,-17.83 4.19,-4.23 9.89,-6.35 17.1,-6.35 4.64,0 8.36,0.62 11.17,1.87l0 8.49c-2.88,-1.35 -6.29,-2.01 -10.24,-2.01 -4.67,0 -8.24,1.32 -10.71,3.96 -2.48,2.65 -3.71,6.51 -3.71,11.6 0,4.74 1.2,8.39 3.59,10.93 2.37,2.55 5.86,3.82 10.46,3.82 3.85,0 7.5,-0.89 10.94,-2.69l0 8.53c-3.33,1.7 -7.37,2.55 -12.14,2.55zm53.68 -45.78l0 8.53 -14.3 0 0 35.98 -9.8 0 0 -35.98 -14.23 0 0 -8.53 38.33 0zm24.57 0c5.78,0 10.22,1.34 13.3,4.05 3.07,2.71 4.61,6.78 4.61,12.18 0,5.44 -1.54,9.52 -4.61,12.24 -3.08,2.72 -7.52,4.08 -13.3,4.08l-8.86 0 0 11.96 -9.73 0 0 -44.51 18.59 0zm-0.64 24.1c5.84,0 8.76,-2.63 8.76,-7.87 0,-5.21 -2.92,-7.82 -8.76,-7.82l-8.22 0 0 15.69 8.22 0zm45.15 -25.37c6.88,0 12.28,2.1 16.21,6.3 3.91,4.2 5.87,9.92 5.87,17.17 0,7.29 -1.96,13.05 -5.87,17.26 -3.93,4.21 -9.33,6.32 -16.21,6.32 -6.93,0 -12.36,-2.1 -16.27,-6.27 -3.93,-4.17 -5.89,-9.9 -5.89,-17.2 0,-7.27 1.97,-13.02 5.89,-17.25 3.95,-4.22 9.36,-6.33 16.27,-6.33zm0 8.39c-3.8,0 -6.79,1.34 -8.98,4.03 -2.19,2.69 -3.28,6.4 -3.28,11.12 0,4.74 1.09,8.44 3.28,11.11 2.19,2.67 5.18,4.01 8.98,4.01 3.75,0 6.72,-1.34 8.92,-4.02 2.2,-2.69 3.29,-6.38 3.29,-11.1 0,-4.69 -1.09,-8.39 -3.29,-11.1 -2.2,-2.71 -5.17,-4.05 -8.92,-4.05z"/>
  <path class="fil0" d="M488.69 140.34l9.12 0 0 -44.5 -8.56 0 -20.04 28.71c0.05,-1.09 0.08,-2.72 0.08,-4.88l0 -23.83 -9.17 0 0 44.5 8.53 0 20.07 -28.79c-0.02,0.57 -0.03,2.3 -0.03,5.18l0 23.61z"/>
  <path class="fil0" d="M138.79 95.73l19.71 -0.07 9 36.63 5.18 0.03 0.01 7.9 -48.91 0 0.03 -7.92 5.96 0.04 9.02 -36.61zm7.95 8.28l-6.1 28.33 16.4 -0.01 -7 -28.32 -3.3 0z"/>
 </g>
</svg>
