<?xml version="1.0" encoding="UTF-8"?>
<!DOCTYPE svg PUBLIC "-//W3C//DTD SVG 1.1//EN" "http://www.w3.org/Graphics/SVG/1.1/DTD/svg11.dtd">
<!-- Creator: CorelDRAW 2021.5 -->
<svg xmlns="http://www.w3.org/2000/svg" xml:space="preserve" width="1613px" height="460px" version="1.1" style="shape-rendering:geometricPrecision; text-rendering:geometricPrecision; image-rendering:optimizeQuality; fill-rule:evenodd; clip-rule:evenodd"
viewBox="0 0 1467.44 418.02"
 xmlns:xlink="http://www.w3.org/1999/xlink"
 xmlns:xodm="http://www.corel.com/coreldraw/odm/2003">
 <defs>
  <style type="text/css">
   <![CDATA[
    .fil9 {fill:#00A0E3}
    .fil8 {fill:#2B2A29;fill-rule:nonzero}
    .fil7 {fill:#E31E24;fill-rule:nonzero}
    .fil6 {fill:#F7E51D;fill-rule:nonzero}
    .fil5 {fill:#C95195;fill-rule:nonzero}
    .fil1 {fill:#B7CB34;fill-rule:nonzero}
    .fil3 {fill:#85C9EE;fill-rule:nonzero}
    .fil2 {fill:#3FAB3C;fill-rule:nonzero}
    .fil0 {fill:#5B4B95;fill-rule:nonzero}
    .fil4 {fill:#00A0E3;fill-rule:nonzero}
   ]]>
  </style>
 </defs>
 <g id="Слой_x0020_1">
  <metadata id="CorelCorpID_0Corel-Layer"/>
  <path class="fil0" d="M190.65 1.51c0,0 103.31,9.24 147.74,20.2 -10.2,4.05 -60.22,54.64 -84.26,92.73 -23.86,-73.3 -49.44,-103.5 -63.48,-112.93z"/>
  <path class="fil1" d="M109.46 394.34c0,0 103.89,-4.98 208.15,23.28 -10.38,-172.95 -62.9,-304.53 -62.9,-304.53 0,0 -71.19,97.09 -145.25,281.25z"/>
  <path class="fil2" d="M317.66 418.02c0,0 -21.93,-206.57 -63.33,-304.99 156.38,83.31 185.13,142.76 206.09,184.65 -18.53,14.13 -98.43,77.96 -142.76,120.34z"/>
  <path class="fil3" d="M460.42 297.68c0,0 -6.82,-68.2 -1.48,-159.8 -40.43,-50.67 -198.28,-26.8 -204.62,-24.85 -5.2,1.61 151.04,63.82 206.1,184.65z"/>
  <path class="fil4" d="M339.1 20.95l118.87 114.98c0,0 -31.18,-45.3 -203.64,-22.9 18.99,-26.8 63.82,-84.28 84.77,-92.08z"/>
  <path class="fil5" d="M183.68 0c3.4,0.49 27.96,-7.65 70.83,113.67 -28.75,-15.1 -131.73,-61.54 -192.63,-42.54 53.59,-28.25 121.8,-71.13 121.8,-71.13z"/>
  <path class="fil6" d="M109.63 393.67c0,0 -49.71,-93.06 -109.63,-154.94 71.63,-91.11 235.81,-123.26 254.32,-125.7 -16.56,25.33 -87.22,134.96 -144.69,280.64z"/>
  <path class="fil7" d="M41.41 82.34c0,0 -22.89,114.98 -41.41,156.39 24.36,-30.2 97.43,-96.47 254.32,-125.7 -53.11,-25.82 -160.77,-70.64 -212.91,-30.69z"/>
  <path class="fil8" d="M250.55 99.63c0,0 -3.61,11.39 -4.55,14.08 -1.86,3.72 10.14,11.68 15.52,2.99 1.15,-8.37 0.94,-13.44 0.94,-15.41 0,-3.21 -7.76,-7.65 -11.91,-1.66z"/>
  <path class="fil8" d="M688.77 296.29c-20.5,1.26 -109.23,0.85 -127.21,-0.41 -1.26,0 -3.36,-2.1 -2.51,-4.19 5.43,-19.25 56.49,-163.22 62.77,-181.22 0.42,-0.42 1.67,-0.42 2.09,0 7.95,18 65.28,173.27 66.55,181.22 0.41,1.67 -0.42,4.6 -1.69,4.6zm74.92 -1.67c-5.44,0.41 -17.16,0.83 -24.69,0.83 -2.93,0 -5.86,-3.76 -6.27,-5.01 -12.57,-26.78 -63.63,-164.49 -80.79,-211.35 -4.18,-11.3 -6.27,-18 -7.11,-21.76 -1.67,0 -5.85,0.41 -11.71,0.41 -5.45,0 -9.63,-0.41 -11.72,-0.41 -1.25,6.69 -5.86,21.76 -9.21,30.96 -23.44,64.87 -66.96,183.71 -74.92,198.38 -1.67,3.35 -5.02,7.95 -8.36,8.78 -6.69,1.26 -12.97,1.69 -22.6,2.1 4.18,16.73 11.72,61.1 13.39,89.14 1.25,0.83 12.97,0.42 13.8,-1.68 2.52,-20.92 7.54,-53.14 14.24,-66.11 0.83,-1.68 5.02,-3.78 7.54,-3.78l156.52 0c6.7,0 9.62,5.87 9.62,5.87 4.6,10.45 7.95,38.9 8.79,66.12 1.67,1.25 13.39,0.41 14.65,-1.68 4.59,-28.87 12.13,-64.03 20.5,-87.88 0,-1.26 -1.25,-2.93 -1.67,-2.93z"/>
  <path class="fil8" d="M867.57 294.2c-7.12,6.7 -16.74,8.78 -25.53,8.78 -33.48,0 -58.17,-33.47 -58.17,-82.86 0,-31.8 10.46,-46.87 21.34,-53.99 5.45,-3.76 13.39,-5.85 20.09,-5.85 35.57,0 58.17,32.63 58.17,81.19 0,25.52 -4.61,42.27 -15.9,52.73zm-28.04 -150.25c-19.67,0 -39.77,7.12 -54.84,16.75 -21.33,14.65 -36.39,36.82 -36.39,69.88 0,43.11 22.17,89.56 83.27,89.56 17.58,0 37.24,-7.95 48.55,-15.48 25.94,-16.32 38.93,-44.36 38.93,-76.58 0,-46.88 -29.3,-84.13 -79.52,-84.13z"/>
  <path class="fil8" d="M1398.37 304.66c-8.36,0 -21.33,-6.7 -22.17,-14.64 -0.83,-13.4 -0.42,-54.84 -0.42,-68.64 37.25,-0.84 59,12.55 59,43.1 0,24.7 -15.07,40.18 -36.41,40.18zm-130.05 -6.28l-72.82 0c-0.4,0 -1.66,-1.25 -1.25,-2.5 2.52,-9.64 30.57,-88.74 34.32,-100.45 0.84,-0.84 2.08,-0.84 2.93,0 8.38,18.83 31.81,82.86 38.08,100.45 0.43,0.84 -0.83,2.5 -1.26,2.5zm140.93 -90.81c-7.94,0 -24.69,0.41 -33.47,1.26l0 -32.65c0.42,-9.63 3.78,-12.13 9.22,-13.39 5.01,-1.26 8.35,-2.09 13.79,-2.51 1.26,-1.68 0.84,-10.47 -0.42,-12.13 -3.33,0 -17.16,1.25 -39.76,1.25 -21.33,0 -32.65,-1.25 -36.82,-1.25 -1.66,1.66 -2.09,9.2 -1.26,12.13 5.03,0.83 9.21,1.25 14.23,2.51 6.27,1.67 9.21,4.6 9.63,11.72 0.42,5.02 0.42,29.71 0.42,48.54 0.42,23.03 0,46.87 -0.42,62.35 -0.42,9.22 -1.43,13 -11.05,15.09 -0.59,0.17 -21.91,2.32 -28.18,-7.54 -9.63,-20.1 -43.11,-107.56 -57.75,-145.64 -0.84,-2.52 -2.52,-3.36 -3.77,-3.36 -2.1,0 -19.25,10.89 -23.86,14.65 -0.41,0.83 -1.25,2.1 -0.83,2.93 2.94,7.96 2.94,10.88 0.83,16.74 -7.54,21.34 -32.64,87.88 -45.19,115.93 -0.83,2.09 -9.69,9.58 -22.76,6.53 -4.99,-2.18 -9.3,-6.05 -15.21,-12.81 -10.48,-12.97 -18.42,-29.29 -30.98,-46.44 -2.91,-4.61 -11.29,-10.9 -18.83,-13.41 6.27,-4.18 15.07,-16.32 23.43,-33.05 8.79,-17.58 11.73,-20.1 19.26,-20.1 3.76,0 10.86,1.68 17.16,4.61 0.83,0.42 2.92,-0.42 3.34,-0.84 1.67,-4.61 5.44,-25.11 4.6,-28.46 -3.34,-3.77 -8.79,-6.28 -15.47,-6.28 -11.3,0 -21.35,3.36 -39.77,42.27 -5.01,10.47 -9.21,18 -14.21,26.37 -5.02,7.53 -12.16,12.55 -34.75,12.97l0 -48.96c0.42,-10.05 3.35,-12.14 9.2,-13.81 4.62,-1.26 7.54,-1.68 13.39,-2.93 0.86,-1.26 1.28,-10.05 0,-11.71 -3.34,0 -20.09,1.25 -38.07,1.25 -16.31,0 -33.06,-1.25 -37.67,-1.25 -1.66,1.66 -2.08,9.2 -1.25,11.71l13.39 2.51c7.95,1.68 9.62,5.43 10.05,12.55 0.41,6.29 0.83,29.71 0.83,50.64 -17.16,-0.42 -26.37,-4.18 -32.63,-13.39 -5.05,-8.36 -8.79,-16.74 -14.65,-30.96 -14.24,-33.49 -25.12,-37.26 -36.84,-37.26 -7.54,0 -15.07,5.03 -18.42,10.46 -1.68,3.36 -3.76,18 -3.76,23.03 0,0.83 2.08,2.51 2.93,2.51 6.28,-3.35 15.06,-5.87 22.61,-5.87 6.69,0 12.97,2.52 22.16,20.51 9.22,18.42 15.49,28.46 23.45,34.32 -6.27,3.35 -13.41,7.96 -16.74,12.14 -11.72,14.22 -22.59,30.96 -33.07,46.45 -10.04,13.81 -17.14,15.91 -33.48,17.16 -1.66,1.68 -0.83,10.45 0.84,11.72 3.36,0.84 10.47,1.25 15.06,1.25 14.23,0 32.66,-2.93 41.02,-11.29 9.22,-9.62 20.92,-33.49 31.4,-50.64 7.1,-11.31 15.05,-18.83 30.12,-19.25 0,24.69 0,48.95 -0.83,53.99 -0.43,6.69 -3.76,10.04 -9.64,11.29 -5,1.25 -10.03,2.09 -15.9,2.93 -1.24,1.68 -1.24,10.04 0,11.72 3.35,0 26.37,-1.27 41.43,-1.27 11.74,0 35.59,1.27 40.18,1.27 1.68,-1.27 2.51,-9.62 1.68,-11.72 -5.44,-0.84 -10.46,-1.25 -15.9,-2.52 -6.71,-1.66 -10.04,-5.01 -10.47,-12.12 -0.42,-12.15 -0.42,-37.68 -0.42,-53.57 13.4,0.82 21.76,7.53 28.45,18.82 9.63,16.74 17.16,31.4 28.88,48.55 8.38,10.47 15.5,13.4 26.8,13.4 8.3,0.19 15.16,0.2 20.78,-0.02 3.25,15.43 6.66,35.97 7.57,53.16 0.84,0.84 12.54,0.84 13.38,-1.24 2.09,-18.84 6.69,-41.02 10.46,-49.81 0.84,-2.09 3.77,-4.2 6.72,-4.2l94.56 0c3.34,0 5.86,1.69 7.13,5.44 3.33,9.22 5.84,29.73 7.1,49.81 1.26,1.68 12.14,1.27 13.4,-0.83 3.08,-21.14 7.7,-39.61 11.67,-53.01 20.07,0.37 39.22,0.7 57.7,0.7 22.17,0.41 40.99,-3.35 53.14,-10.04 17.56,-9.63 29.3,-27.63 29.3,-48.13 0,-36.83 -29.3,-51.48 -58.19,-51.48z"/>
  <path class="fil9" d="M843.26 66.6c-11.5,0 -23.09,-8.3 -23.09,-28.08 0,-19.79 11.59,-27.99 23.09,-27.99 5.4,0 10.19,1.5 13.39,3.7l-2.9 6.09c-2.4,-1.69 -5.99,-2.79 -9.59,-2.79 -7.7,0 -15.39,5.79 -15.39,20.89 0,15.09 7.79,21.08 15.39,21.08 3.6,0 7.19,-1.2 9.59,-2.89l2.9 6.29c-3.3,2.3 -7.99,3.7 -13.39,3.7z"/>
  <path class="fil9" d="M885.23 66.6c-14.79,0 -22.19,-6.3 -22.19,-16.49 0,-15.39 16.59,-17.69 32.88,-18.59l0 -4.1c0,-7.99 -5.29,-10.49 -12.79,-10.49 -5,0 -11.19,1.6 -14.69,3.3l-2.2 -5.9c4.1,-1.9 10.9,-3.8 17.59,-3.8 12.09,0 19.99,4.8 19.99,17.59l0 34.68c-3.8,2.1 -11.49,3.8 -18.59,3.8zm10.69 -29.28c-11.99,0.7 -24.98,1.4 -24.98,12.59 0,6.29 4.7,10.39 14.09,10.39 4.1,0 8.99,-0.8 10.89,-1.7l0 -21.28z"/>
  <path class="fil9" d="M1286.69 66.6c-14.79,0 -22.19,-6.3 -22.19,-16.49 0,-15.39 16.59,-17.69 32.88,-18.59l0 -4.1c0,-7.99 -5.3,-10.49 -12.79,-10.49 -5,0 -11.19,1.6 -14.69,3.3l-2.2 -5.9c4.1,-1.9 10.89,-3.8 17.59,-3.8 12.09,0 19.99,4.8 19.99,17.59l0 34.68c-3.8,2.1 -11.5,3.8 -18.59,3.8zm10.69 -29.28c-11.99,0.7 -24.98,1.4 -24.98,12.59 0,6.29 4.69,10.39 14.09,10.39 4.1,0 8.99,-0.8 10.89,-1.7l0 -21.28z"/>
  <polygon class="fil9" points="947.79,65.5 947.79,41.01 924.21,41.01 924.21,65.5 915.91,65.5 915.91,11.63 924.21,11.63 924.21,35.02 947.79,35.02 947.79,11.63 956.09,11.63 956.09,65.5 "/>
  <polygon class="fil9" points="987.47,18.43 987.47,65.5 979.17,65.5 979.17,18.43 963.88,18.43 963.88,11.63 1002.66,11.63 1002.66,18.43 "/>
  <path class="fil9" d="M1051.83 37.22l-36.78 5.29c0.9,11.5 7.79,17.29 18.09,17.29 5.39,0 11.09,-1.3 14.69,-3.29l2.6 6.29c-3.9,2.2 -10.6,3.8 -17.69,3.8 -16.09,0 -25.79,-10.4 -25.79,-28.08 0,-16.6 8.9,-27.99 23.49,-27.99 13.29,0 21.49,8.7 21.49,23.09 0,1.1 0,2.3 -0.1,3.6zm-21.49 -20.29c-9.5,0 -15.59,7.59 -15.79,19.79l29.38 -4.2c-0.1,-10.6 -5.5,-15.59 -13.59,-15.59z"/>
  <polygon class="fil9" points="1094,65.5 1080.01,43.31 1079.81,43.31 1065.82,65.5 1056.32,65.5 1074.81,37.52 1057.72,11.63 1067.12,11.63 1079.81,31.92 1080.01,31.92 1092.7,11.63 1102.1,11.63 1085.01,37.52 1103.5,65.5 "/>
  <polygon class="fil9" points="1142.47,65.5 1142.47,41.01 1118.88,41.01 1118.88,65.5 1110.59,65.5 1110.59,11.63 1118.88,11.63 1118.88,35.02 1142.47,35.02 1142.47,11.63 1150.76,11.63 1150.76,65.5 "/>
  <path class="fil9" d="M1199.13 65.5l0 -37.78c0,-3.2 0.2,-6.89 0.2,-6.89l-0.2 0c0,0 -1.5,3.49 -3.29,6.19l-24.69 38.48 -8.3 0 0 -53.87 7.5 0 0 36.78c0,3.2 -0.2,7.1 -0.2,7.1l0.2 0c0,0 1.6,-3.5 3.3,-6.2l24.19 -37.68 8.69 0 0 53.87 -7.4 0z"/>
  <path class="fil9" d="M1251.3 65.5l-9.69 -16.59c-3,-5.1 -7.9,-9.49 -14.6,-9.49l0 26.08 -8.19 0 0 -53.87 8.19 0 0 24.59 0.2 0 22.69 -24.59 10.1 0 -23.79 24.49c6.3,1.9 10.39,5.89 13.79,11.59l10.59 17.79 -9.29 0z"/>
 </g>
</svg>
