<?xml version="1.0" encoding="UTF-8"?>
<!DOCTYPE svg PUBLIC "-//W3C//DTD SVG 1.1//EN" "http://www.w3.org/Graphics/SVG/1.1/DTD/svg11.dtd">
<!-- Creator: CorelDRAW 2021.5 -->
<svg xmlns="http://www.w3.org/2000/svg" xml:space="preserve" width="2918px" height="558px" version="1.1" style="shape-rendering:geometricPrecision; text-rendering:geometricPrecision; image-rendering:optimizeQuality; fill-rule:evenodd; clip-rule:evenodd"
viewBox="0 0 2987.01 571.58"
 xmlns:xlink="http://www.w3.org/1999/xlink"
 xmlns:xodm="http://www.corel.com/coreldraw/odm/2003">
 <defs>
  <style type="text/css">
   <![CDATA[
    .fil4 {fill:#218838;fill-rule:nonzero}
    .fil1 {fill:#FEFEFE;fill-rule:nonzero}
    .fil3 {fill:url(#id0)}
    .fil2 {fill:url(#id1)}
    .fil0 {fill:url(#id2)}
   ]]>
  </style>
  <linearGradient id="id0" gradientUnits="userSpaceOnUse" x1="209.89" y1="426.93" x2="304.06" y2="652.29">
   <stop offset="0" style="stop-opacity:1; stop-color:#EB6020"/>
   <stop offset="1" style="stop-opacity:1; stop-color:#FEFEFE"/>
  </linearGradient>
  <linearGradient id="id1" gradientUnits="userSpaceOnUse" xlink:href="#id0" x1="209.89" y1="144.61" x2="304.06" y2="-80.75">
  </linearGradient>
  <radialGradient id="id2" gradientUnits="userSpaceOnUse" gradientTransform="matrix(1.00835 -1.00835 1.00835 1.00835 -292 413)" cx="411.91" cy="285.82" r="280.04" fx="411.91" fy="285.82">
   <stop offset="0" style="stop-opacity:1; stop-color:#33A93D"/>
   <stop offset="0.290196" style="stop-opacity:1; stop-color:#1B9033"/>
   <stop offset="1" style="stop-opacity:1; stop-color:#047829"/>
  </radialGradient>
 </defs>
 <g id="Слой_x0020_1">
  <metadata id="CorelCorpID_0Corel-Layer"/>
  <path class="fil0" d="M436.77 561.32l250.65 -250.64c13.67,-13.68 13.67,-36.05 0,-49.72l-250.65 -250.65c-13.67,-13.67 -36.04,-13.67 -49.72,0l-250.64 250.65c-13.67,13.67 -13.67,36.04 0,49.72l250.64 250.64c13.68,13.67 36.05,13.67 49.72,0z"/>
  <path class="fil1" d="M291.88 190.2l0 48.44 43.91 42.17 141.48 0c1.62,0 3.08,0.68 4.11,1.78l47.77 44.54c1.19,1.11 1.79,2.62 1.79,4.13l0.01 50.83c5.53,1.13 10.46,3.86 14.3,7.7l0.31 0.34c4.92,5.09 7.95,12 7.95,19.61 0,7.77 -3.16,14.82 -8.27,19.93l0.01 0.02c-5.1,5.1 -12.16,8.26 -19.95,8.26 -7.79,0 -14.84,-3.16 -19.95,-8.26 -5.1,-5.11 -8.26,-12.16 -8.26,-19.95 0,-7.79 3.16,-14.85 8.26,-19.95 3.84,-3.84 8.78,-6.57 14.3,-7.7l0 -48.39 -44.59 -41.58 -141.52 0 0 -0.02 -0.07 0 -0.03 0 -0.03 0 -0.07 0 -0.04 0 -0.03 0 -0.06 -0.01 -0.04 0 -0.03 0 -0.06 -0.01 -0.05 0 -0.02 0 -0.06 -0.01 -0.07 -0.01 -0.06 0 -0.06 -0.01 -0.01 0 -0.07 -0.01 -0.06 -0.01 -0.07 -0.01 -0.05 -0.01 -0.01 -0.01 -0.07 -0.01 -0.06 -0.01 0 0 -0.07 -0.02 -0.06 -0.01 0 0 -0.07 -0.02 -0.06 -0.01 -0.19 -0.06 -0.07 -0.02 -0.06 -0.02 -0.06 -0.02c-0.48,-0.16 -0.95,-0.4 -1.39,-0.7l-0.05 -0.04c-0.21,-0.14 -0.41,-0.31 -0.61,-0.49l-36.55 -34.41c-0.63,-0.58 -1.09,-1.28 -1.38,-2.02l-9.12 -8.76c-1.25,-1.04 -2.05,-2.6 -2.05,-4.35l0 -50.83c-5.52,-1.13 -10.46,-3.86 -14.29,-7.7 -5.11,-5.1 -8.27,-12.16 -8.27,-19.95 0,-7.79 3.16,-14.84 8.27,-19.95 5.1,-5.1 12.16,-8.26 19.95,-8.26 7.78,0 14.84,3.16 19.94,8.26l0.32 0.34c4.92,5.09 7.95,12.01 7.95,19.61 0,7.77 -3.17,14.82 -8.28,19.94l0.01 0.01c-3.83,3.83 -8.77,6.57 -14.29,7.7zm333.12 8.35l-11.3 -11.31 -151.41 0 -34.92 -32.86c-1.09,-1.03 -2.48,-1.53 -3.86,-1.53l0 -0.02 -36.21 0c-1.64,0 -3.11,0.7 -4.15,1.82l-26.73 25.16c-0.24,0.22 -0.45,0.46 -0.64,0.72 -6.83,0.56 -12.98,3.57 -17.58,8.15l-0.03 0.04c-5.11,5.11 -8.27,12.16 -8.27,19.92 0,7.61 3.03,14.52 7.95,19.61l0.32 0.34c5.1,5.1 12.16,8.26 19.95,8.26 7.61,0 14.53,-3.03 19.61,-7.95l0.34 -0.31c5.1,-5.1 8.26,-12.16 8.26,-19.95 0,-7.75 -3.15,-14.79 -8.25,-19.91l-0.04 -0.03c-2.42,-2.42 -5.27,-4.4 -8.43,-5.82l19.92 -18.74 31.75 0 34.64 32.59c1.03,1.12 2.51,1.82 4.15,1.82l164.93 0zm-23.63 -23.64l-11.31 -11.3 -119.53 0 -34.63 -32.6c-1.03,-1.11 -2.51,-1.81 -4.15,-1.81l-56.99 0 0 0.01c-1.39,0 -2.78,0.51 -3.87,1.53l-62.55 59.1c-1.27,1.04 -2.08,2.62 -2.08,4.38l0 33.69 0.02 0c0,1.5 0.59,3 1.77,4.11l35.28 33.2c1.03,1.11 2.51,1.81 4.15,1.81l136.17 0c1.13,5.52 3.86,10.46 7.7,14.29l0.01 -0.01c5.12,5.11 12.17,8.28 19.94,8.28 7.75,0 14.79,-3.15 19.91,-8.25l0.03 -0.04c5.11,-5.11 8.27,-12.16 8.27,-19.92 0,-7.79 -3.16,-14.85 -8.27,-19.95 -5.1,-5.11 -12.15,-8.27 -19.94,-8.27 -7.79,0 -14.85,3.16 -19.95,8.27 -3.84,3.83 -6.57,8.77 -7.7,14.29l-133.95 0 -32.13 -30.23 0 -28.86 59.42 -56.13 52.54 0 34.91 32.87c1.09,1.02 2.48,1.53 3.87,1.53l0 0.01 133.06 0zm-401.28 199.45l11.31 11.31 139.08 0 34.91 32.86c1.09,1.03 2.48,1.53 3.87,1.53l0 0.02 36.2 0c1.64,0 3.12,-0.7 4.15,-1.82l26.73 -25.16c0.24,-0.22 0.46,-0.46 0.65,-0.72 6.68,-0.55 12.71,-3.44 17.27,-7.85l0.34 -0.32c5.1,-5.1 8.26,-12.15 8.26,-19.94 0,-7.79 -3.16,-14.85 -8.26,-19.95 -5.11,-5.11 -12.16,-8.26 -19.95,-8.26 -7.78,0 -14.82,3.15 -19.93,8.26l-0.02 0.02c-5.1,5.11 -8.26,12.15 -8.26,19.93 0,7.79 3.16,14.84 8.26,19.94 2.42,2.43 5.28,4.41 8.45,5.83l-19.91 18.73 -31.76 0 -34.63 -32.59c-1.03,-1.12 -2.51,-1.82 -4.15,-1.82l-152.61 0zm23.64 23.64l11.31 11.31 107.2 0 34.63 32.59c1.03,1.12 2.51,1.82 4.15,1.82l56.99 0 0 -0.02c1.38,0 2.77,-0.51 3.86,-1.53l62.56 -59.1c1.26,-1.04 2.07,-2.61 2.07,-4.38l0 -33.69 -0.02 0c0,-1.5 -0.59,-3 -1.77,-4.11l-35.27 -33.19c-1.03,-1.12 -2.51,-1.82 -4.15,-1.82l-136.18 0c-1.12,-5.5 -3.85,-10.42 -7.68,-14.26l-0.03 -0.03c-5.12,-5.11 -12.17,-8.27 -19.93,-8.27 -7.76,0 -14.8,3.15 -19.91,8.25l-0.04 0.04c-5.11,5.11 -8.26,12.16 -8.26,19.92 0,7.76 3.15,14.8 8.24,19.92l0.04 0.03c5.12,5.11 12.16,8.27 19.93,8.27 7.76,0 14.8,-3.15 19.91,-8.25l0.04 -0.04c3.83,-3.84 6.57,-8.77 7.69,-14.27l133.96 0 32.12 30.24 0 28.85 -59.41 56.13 -52.54 0 -34.92 -32.86c-1.09,-1.03 -2.48,-1.53 -3.86,-1.53l0 -0.02 -120.73 0zm289.62 23.69c3.06,3.06 7.28,4.95 11.95,4.95 4.67,0 8.9,-1.89 11.95,-4.95l0.03 0c3.04,-3.04 4.93,-7.27 4.93,-11.95 0,-4.56 -1.79,-8.69 -4.69,-11.71l-0.27 -0.25c-3.05,-3.05 -7.28,-4.95 -11.95,-4.95 -4.67,0 -8.89,1.89 -11.95,4.95 -3.06,3.06 -4.95,7.29 -4.95,11.96 0,4.67 1.89,8.89 4.95,11.95zm-239.08 -247.18c3.06,3.06 7.29,4.95 11.96,4.95 4.66,0 8.89,-1.9 11.95,-4.95l0.02 0c3.04,-3.05 4.93,-7.28 4.93,-11.96 0,-4.56 -1.79,-8.68 -4.69,-11.71l-0.26 -0.24c-3.06,-3.06 -7.29,-4.95 -11.95,-4.95 -4.67,0 -8.9,1.89 -11.96,4.95 -3.06,3.06 -4.95,7.28 -4.95,11.95 0,4.67 1.89,8.9 4.95,11.96zm192.33 177.8c-3.05,-3.05 -7.28,-4.95 -11.95,-4.95 -4.68,0 -8.91,1.89 -11.97,4.94 -3.05,3.06 -4.94,7.29 -4.94,11.97 0,4.67 1.9,8.89 4.95,11.95 3.06,3.06 7.29,4.95 11.96,4.95 4.56,0 8.68,-1.78 11.71,-4.69l0.24 -0.26c3.06,-3.06 4.95,-7.28 4.95,-11.95 0,-4.67 -1.89,-8.9 -4.95,-11.96zm-153.18 -52.75c-3.04,-3.05 -7.27,-4.93 -11.95,-4.93 -4.69,0 -8.91,1.88 -11.96,4.93l-0.02 0.02c-3.04,3.04 -4.93,7.27 -4.93,11.95 0,4.69 1.89,8.91 4.93,11.96l0.02 0.02c3.05,3.04 7.27,4.93 11.96,4.93 4.68,0 8.91,-1.89 11.95,-4.93l0.02 -0.02c3.05,-3.05 4.93,-7.27 4.93,-11.96l0 0c0,-4.68 -1.88,-8.91 -4.93,-11.95l-0.02 -0.02zm32.74 -78.96c3.06,3.06 7.29,4.95 11.96,4.95 4.55,0 8.68,-1.79 11.71,-4.7l0.24 -0.25c3.06,-3.06 4.95,-7.29 4.95,-11.96 0,-4.68 -1.88,-8.91 -4.93,-11.95l-0.02 -0.02c-3.04,-3.05 -7.27,-4.93 -11.95,-4.93 -4.69,0 -8.92,1.88 -11.96,4.93l-0.02 0.02c-3.04,3.04 -4.93,7.27 -4.93,11.95 0,4.56 1.79,8.69 4.69,11.71l0.26 0.25zm153.18 52.75c3.05,3.05 7.27,4.93 11.96,4.93 4.68,0 8.91,-1.88 11.95,-4.93l0.02 -0.02c3.05,-3.04 4.93,-7.27 4.93,-11.95 0,-4.67 -1.89,-8.9 -4.95,-11.96 -3.06,-3.06 -7.29,-4.95 -11.95,-4.95 -4.67,0 -8.9,1.89 -11.96,4.95 -3.06,3.06 -4.95,7.29 -4.95,11.96l0 0c0,4.66 1.89,8.89 4.95,11.95l0 0.02z"/>
  <path class="fil2" d="M4.59 279.99c14.16,-0.04 28.33,-0.08 42.48,-0.11 14.15,-0.04 28.29,-0.08 42.44,-0.11 8.26,-0.02 24.98,-10.03 37.09,-22.24 39.68,-39.99 79.1,-79.69 118.25,-119.15 38.92,-39.22 77.58,-78.17 116.01,-116.91 11.64,-11.73 14.55,-21.37 6.51,-21.37 -13.77,-0.02 -27.55,-0.04 -41.32,-0.05 -13.77,-0.02 -27.57,-0.04 -41.36,-0.05 -8.08,-0.01 -24.28,9.62 -36.05,21.38 -38.85,38.79 -77.93,77.8 -117.27,117.09 -39.58,39.52 -79.44,79.28 -119.54,119.32 -12.26,12.24 -15.54,22.22 -7.24,22.2z"/>
  <g id="_2370287405168">
   <image x="4.17" y="0" width="323.26" height="267.91" xlink:href="Лого Сигма-Гео_Images\Лого Сигма-Гео_ImgID1.png"/>
  </g>
  <path class="fil3" d="M4.6 291.55c14.16,0.04 28.33,0.08 42.47,0.11 14.15,0.04 28.3,0.08 42.45,0.11 8.25,0.03 24.97,10.03 37.09,22.24 39.67,39.99 79.1,79.69 118.25,119.15 38.91,39.22 77.57,78.17 116,116.91 11.65,11.73 14.56,21.37 6.52,21.38 -13.78,0.01 -27.55,0.03 -41.33,0.05 -13.77,0.01 -27.56,0.03 -41.35,0.04 -8.09,0.01 -24.28,-9.62 -36.05,-21.38 -38.85,-38.79 -77.93,-77.8 -117.27,-117.08 -39.58,-39.52 -79.44,-79.28 -119.55,-119.33 -12.25,-12.24 -15.54,-22.22 -7.23,-22.2z"/>
  <g id="_2370287403824">
   <image x="4.17" y="301.08" width="323.26" height="270.46" xlink:href="Лого Сигма-Гео_Images\Лого Сигма-Гео_ImgID2.png"/>
  </g>
  <path class="fil4" d="M1000.76 349.12c0,0 20.54,0 61.69,0 -11.1,25.77 -28.39,46.19 -51.87,61.31 -23.47,15.06 -49.76,22.59 -78.79,22.59 -13.59,0 -26.86,-1.73 -39.75,-5.23 -12.89,-3.51 -24.76,-8.43 -35.6,-14.74 -10.85,-6.38 -20.8,-14.1 -29.99,-23.1 -9.19,-9.06 -16.91,-18.95 -23.29,-29.73 -6.32,-10.78 -11.29,-22.59 -14.87,-35.35 -3.51,-12.76 -5.29,-25.9 -5.29,-39.3 0,-19.72 3.83,-38.54 11.55,-56.47 7.78,-17.93 18.12,-33.43 31.07,-46.38 12.95,-12.95 28.39,-23.29 46.32,-31.01 17.99,-7.72 36.81,-11.61 56.46,-11.61 17.81,0 34.97,3 51.49,8.87 16.53,5.93 31.4,14.48 44.6,25.52 9,7.72 16.21,15.37 21.7,22.84 5.48,7.46 10.91,17.1 16.26,28.97l-58.69 0c-9.64,-12.45 -20.29,-21.57 -31.97,-27.18 -11.74,-5.68 -25.77,-8.55 -42.24,-8.55 -29.54,0 -53.02,10.33 -70.5,31.07 -7.21,8.29 -12.89,18.25 -17.1,29.67 -4.15,11.48 -6.25,23.03 -6.25,34.58 0,17.35 4.21,33.43 12.7,48.23 8.48,14.87 20.03,26.61 34.58,35.29 14.61,8.61 30.5,12.95 47.66,12.95 13.59,0 25.77,-2.55 36.56,-7.66 10.78,-5.1 21.95,-13.65 33.56,-25.58zm277.41 -203.98c0,0 17.74,0 53.28,0 0,0 0,94.3 0,282.84 0,0 -17.36,0 -52.13,0 0,0 0,-65.34 0,-196.07 0,0 -40.96,65.33 -122.82,196.07 0,0 -17.8,0 -53.27,0 0,0 0,-94.3 0,-282.84 0,0 17.35,0 52.12,0 0,0 0,65.33 0,195.94 0,0 40.96,-65.34 122.82,-195.94zm256.49 50.15c0,0 -32.15,0 -96.47,0 0,0 0,77.52 0,232.69 0,0 -17.48,0 -52.51,0 0,0 0,-94.3 0,-282.84 0,0 49.64,0 148.98,0 0,0 0,16.71 0,50.15zm29.73 232.69c0,0 0,-94.3 0,-282.84 0,0 23.99,0 71.97,0 0,0 25.4,71.46 76.25,214.25 0,0 25.14,-71.4 75.35,-214.25 0,0 23.99,0 71.97,0 0,0 0,94.3 0,282.84 0,0 -17.48,0 -52.38,0 0,0 0,-70.7 0,-212.15 0,0 -24.57,70.7 -73.82,212.15 0,0 -14.29,0 -43.01,0 0,0 -24.56,-70.7 -73.81,-212.15 0,0 0,70.7 0,212.15 0,0 -17.49,0 -52.52,0zm325.21 0c0,0 39.3,-94.3 117.97,-282.84 0,0 13.72,0 41.28,0 0,0 39.56,94.3 118.68,282.84 0,0 -19.21,0 -57.75,0 0,0 -10.08,-24.38 -30.24,-73.12 0,0 -33.56,0 -100.62,0 0,0 -10.46,24.37 -31.39,73.12 0,0 -19.27,0 -57.93,0zm108.4 -123.21c0,0 20.23,0 60.61,0 0,0 -10.14,-28.58 -30.3,-85.75 0,0 -10.08,28.58 -30.31,85.75zm477.19 -109.48c0,0 -32.16,0 -96.48,0 0,0 0,77.52 0,232.69 0,0 -17.48,0 -52.51,0 0,0 0,-94.3 0,-282.84 0,0 49.64,0 148.99,0 0,0 0,16.71 0,50.15zm29.73 232.69c0,0 0,-94.3 0,-282.84 0,0 50.66,0 151.98,0 0,0 0,16.71 0,50.15 0,0 -33.18,0 -99.47,0 0,0 0,22.14 0,66.54 0,0 31.77,0 95.32,0 0,0 0,16.66 0,50.09 0,0 -31.78,0 -95.32,0 0,0 0,21.95 0,65.97 0,0 33.17,0 99.47,0 0,0 0,16.72 0,50.09 0,0 -50.66,0 -151.98,0zm336.88 -287.88c19.65,0 38.47,3.89 56.4,11.61 17.99,7.72 33.43,18.12 46.38,31.14 12.96,13.01 23.29,28.52 30.95,46.64 7.65,18.05 11.48,37 11.48,56.78 0,27.18 -6.44,52 -19.27,74.39 -12.82,22.46 -30.37,40.14 -52.7,53.03 -22.33,12.88 -46.96,19.33 -74.01,19.33 -20.42,0 -39.88,-3.77 -58.25,-11.42 -18.38,-7.6 -34.14,-17.87 -47.34,-30.88 -13.21,-13.08 -23.74,-28.65 -31.52,-46.77 -7.79,-18.12 -11.68,-37.2 -11.68,-57.3 0,-20.29 3.83,-39.55 11.55,-57.67 7.79,-18.13 18.25,-33.69 31.46,-46.64 13.2,-12.96 29.03,-23.23 47.53,-30.82 18.5,-7.59 38.15,-11.42 59.02,-11.42zm-3.38 50.47c-25.78,0 -47.86,9.31 -66.1,27.94 -18.25,18.63 -27.38,41.22 -27.38,67.76 0,13.33 2.49,25.97 7.47,37.77 4.98,11.87 11.74,22.01 20.22,30.56 8.43,8.55 18.63,15.32 30.44,20.29 11.87,4.98 24.37,7.47 37.58,7.47 26.8,0 49.06,-9 66.8,-27.12 17.8,-18.05 26.67,-40.77 26.67,-68.2 0,-27.82 -9.06,-50.79 -27.18,-69.1 -18.18,-18.25 -41.03,-27.37 -68.52,-27.37zm-656.86 149.74c0,0 0,-15.06 0,-45.24 0,0 35.35,0 106.17,0 0,0 0,15.06 0,45.24 0,0 -35.41,0 -106.17,0z"/>
 </g>
</svg>
